<?xml version="1.0" encoding="UTF-8" standalone="no"?>
<!DOCTYPE svg PUBLIC "-//W3C//DTD SVG 1.1//EN"
 "http://www.w3.org/Graphics/SVG/1.1/DTD/svg11.dtd">
<!-- Generated by graphviz version 2.38.0 (20140413.2041)
 -->
<!-- Title: G Pages: 1 -->
<svg width="247pt" height="204pt"
 viewBox="0.00 0.00 247.00 204.00" xmlns="http://www.w3.org/2000/svg" xmlns:xlink="http://www.w3.org/1999/xlink">
<g id="graph0" class="graph" transform="scale(1 1) rotate(0) translate(4 200)">
<title>G</title>
<polygon fill="white" stroke="none" points="-4,4 -4,-200 243,-200 243,4 -4,4"/>
<g id="clust1" class="cluster"><title>cluster_Global</title>
<path fill="none" stroke="gray" d="M20,-8C20,-8 219,-8 219,-8 225,-8 231,-14 231,-20 231,-20 231,-176 231,-176 231,-182 225,-188 219,-188 219,-188 20,-188 20,-188 14,-188 8,-182 8,-176 8,-176 8,-20 8,-20 8,-14 14,-8 20,-8"/>
<text text-anchor="middle" x="119.5" y="-175.2" font-family="Times New Roman,serif" font-size="11.00" fill="gray">Global</text>
</g>
<!-- \\Gafas -->
<g id="node1" class="node"><title>\\Gafas</title>
<polygon fill="none" stroke="black" points="214.5,-160 160.5,-160 160.5,-124 214.5,-124 214.5,-160"/>
<text text-anchor="middle" x="187.5" y="-139.2" font-family="Courier,monospace" font-size="11.00">Gafas</text>
</g>
<!-- \\DBPDO -->
<g id="node2" class="node"><title>\\DBPDO</title>
<polygon fill="none" stroke="black" points="214.5,-106 160.5,-106 160.5,-70 214.5,-70 214.5,-106"/>
<text text-anchor="middle" x="187.5" y="-85.2" font-family="Courier,monospace" font-size="11.00">DBPDO</text>
</g>
<!-- \\GafasPDO -->
<g id="node3" class="node"><title>\\GafasPDO</title>
<polygon fill="none" stroke="black" points="223,-52 152,-52 152,-16 223,-16 223,-52"/>
<text text-anchor="middle" x="187.5" y="-31.2" font-family="Courier,monospace" font-size="11.00">GafasPDO</text>
</g>
<!-- \\GafasDB -->
<g id="node4" class="node"><title>\\GafasDB</title>
<polygon fill="none" stroke="black" points="80,-52 16,-52 16,-16 80,-16 80,-52"/>
<text text-anchor="middle" x="48" y="-31.2" font-family="Courier,monospace" font-size="11.00">GafasDB</text>
</g>
<!-- \\GafasPDO&#45;&gt;\\GafasDB -->
<g id="edge1" class="edge"><title>\\GafasPDO&#45;&gt;\\GafasDB</title>
<path fill="none" stroke="black" stroke-dasharray="1,5" d="M151.803,-34C133.19,-34 110.123,-34 90.5577,-34"/>
<polygon fill="none" stroke="black" points="90.3945,-30.5001 80.3945,-34 90.3944,-37.5001 90.3945,-30.5001"/>
</g>
</g>
</svg>
